<svg width="64" height="64" viewBox="0 0 64 64" fill="none" xmlns="http://www.w3.org/2000/svg">
<circle cx="32" cy="32" r="32" fill="#00B14F"/>
<path d="M14.176 44L17.128 19.472H19.72C20.28 19.472 20.704 19.616 20.992 19.904C21.296 20.176 21.448 20.608 21.448 21.2L21.232 24.656C22.384 22.816 23.632 21.44 24.976 20.528C26.336 19.6 27.768 19.136 29.272 19.136C30.84 19.136 32.04 19.672 32.872 20.744C33.704 21.8 34.152 23.328 34.216 25.328C35.4 23.2 36.72 21.64 38.176 20.648C39.632 19.64 41.192 19.136 42.856 19.136C44.936 19.136 46.448 19.944 47.392 21.56C48.336 23.176 48.632 25.464 48.28 28.424L46.432 44H41.368L43.192 28.424C43.304 27.56 43.344 26.816 43.312 26.192C43.296 25.552 43.2 25.032 43.024 24.632C42.864 24.216 42.616 23.912 42.28 23.72C41.96 23.528 41.536 23.432 41.008 23.432C40.368 23.432 39.728 23.6 39.088 23.936C38.464 24.272 37.864 24.76 37.288 25.4C36.712 26.04 36.176 26.824 35.68 27.752C35.184 28.68 34.744 29.736 34.36 30.92L32.824 44H27.76L29.608 28.424C29.72 27.56 29.768 26.816 29.752 26.192C29.736 25.552 29.648 25.032 29.488 24.632C29.328 24.216 29.088 23.912 28.768 23.72C28.448 23.528 28.024 23.432 27.496 23.432C26.792 23.432 26.12 23.616 25.48 23.984C24.84 24.336 24.232 24.848 23.656 25.52C23.08 26.192 22.544 27.016 22.048 27.992C21.552 28.952 21.112 30.04 20.728 31.256L19.216 44H14.176Z" fill="white"/>
</svg>
