<svg width="272" height="80" viewBox="0 0 272 80" fill="none" xmlns="http://www.w3.org/2000/svg">
<circle cx="40" cy="40" r="40" fill="#00B14F"/>
<path d="M17.72 54.5L21.41 23.84H24.65C25.35 23.84 25.88 24.02 26.24 24.38C26.62 24.72 26.81 25.26 26.81 26L26.54 30.32C27.98 28.02 29.54 26.3 31.22 25.16C32.92 24 34.71 23.42 36.59 23.42C38.55 23.42 40.05 24.09 41.09 25.43C42.13 26.75 42.69 28.66 42.77 31.16C44.25 28.5 45.9 26.55 47.72 25.31C49.54 24.05 51.49 23.42 53.57 23.42C56.17 23.42 58.06 24.43 59.24 26.45C60.42 28.47 60.79 31.33 60.35 35.03L58.04 54.5H51.71L53.99 35.03C54.13 33.95 54.18 33.02 54.14 32.24C54.12 31.44 54 30.79 53.78 30.29C53.58 29.77 53.27 29.39 52.85 29.15C52.45 28.91 51.92 28.79 51.26 28.79C50.46 28.79 49.66 29 48.86 29.42C48.08 29.84 47.33 30.45 46.61 31.25C45.89 32.05 45.22 33.03 44.6 34.19C43.98 35.35 43.43 36.67 42.95 38.15L41.03 54.5H34.7L37.01 35.03C37.15 33.95 37.21 33.02 37.19 32.24C37.17 31.44 37.06 30.79 36.86 30.29C36.66 29.77 36.36 29.39 35.96 29.15C35.56 28.91 35.03 28.79 34.37 28.79C33.49 28.79 32.65 29.02 31.85 29.48C31.05 29.92 30.29 30.56 29.57 31.4C28.85 32.24 28.18 33.27 27.56 34.49C26.94 35.69 26.39 37.05 25.91 38.57L24.02 54.5H17.72Z" fill="white"/>
<path d="M174.865 44.2797C173.743 44.2797 172.716 44.5307 171.786 45.0329C170.87 45.535 170.08 46.2218 169.415 47.0932C168.751 47.9498 168.234 48.9541 167.865 50.1061C167.51 51.2433 167.333 52.4618 167.333 53.7615C167.333 54.5 167.392 55.1277 167.51 55.6446C167.628 56.1615 167.783 56.5824 167.975 56.9073C168.182 57.2175 168.418 57.4464 168.684 57.5941C168.965 57.7418 169.268 57.8157 169.593 57.8157C170.095 57.8157 170.582 57.631 171.055 57.2618C171.527 56.8778 171.97 56.3609 172.384 55.711C172.812 55.0612 173.204 54.3006 173.558 53.4292C173.913 52.5578 174.215 51.6273 174.466 50.6378L175.286 44.2797H174.865ZM173.802 59.0563C172.871 60.356 171.823 61.3824 170.656 62.1357C169.504 62.8741 168.234 63.2433 166.846 63.2433C166.018 63.2433 165.221 63.0809 164.453 62.756C163.685 62.4163 163.006 61.9141 162.415 61.2495C161.824 60.5701 161.351 59.7135 160.997 58.6797C160.642 57.631 160.465 56.3978 160.465 54.98C160.465 52.8975 160.842 50.9258 161.595 49.0649C162.363 47.1892 163.426 45.5498 164.785 44.1467C166.159 42.7437 167.783 41.6286 169.659 40.8015C171.535 39.9744 173.595 39.5609 175.84 39.5609C176.933 39.5609 178.041 39.6347 179.163 39.7824C180.286 39.9301 181.393 40.196 182.486 40.58L179.695 62.8889H176.017C175.589 62.8889 175.227 62.8372 174.932 62.7338C174.651 62.6157 174.422 62.4606 174.245 62.2686C174.082 62.0766 173.964 61.8477 173.89 61.5818C173.831 61.316 173.802 61.028 173.802 60.7178V59.0563ZM194.816 29.7246L192.534 48.3117H192.999C193.383 48.3117 193.686 48.2526 193.908 48.1344C194.144 48.0015 194.388 47.7873 194.639 47.492L199.38 41.023C199.675 40.6538 199.985 40.3806 200.31 40.2033C200.65 40.0113 201.063 39.9153 201.551 39.9153H207.709L201.285 48.0901C200.664 48.8581 199.97 49.4563 199.202 49.8846C199.512 50.1357 199.778 50.431 200 50.7707C200.221 51.1104 200.428 51.487 200.62 51.9006L205.228 62.8889H199.247C198.759 62.8889 198.353 62.8077 198.028 62.6452C197.718 62.468 197.474 62.1652 197.297 61.7369L194.107 53.6064C193.944 53.2372 193.767 53.0009 193.575 52.8975C193.398 52.7793 193.103 52.7203 192.689 52.7203H191.98L190.74 62.8889H183.96L188.037 29.7246H194.816ZM220.774 44.2797C219.651 44.2797 218.625 44.5307 217.694 45.0329C216.779 45.535 215.989 46.2218 215.324 47.0932C214.659 47.9498 214.143 48.9541 213.773 50.1061C213.419 51.2433 213.242 52.4618 213.242 53.7615C213.242 54.5 213.301 55.1277 213.419 55.6446C213.537 56.1615 213.692 56.5824 213.884 56.9073C214.091 57.2175 214.327 57.4464 214.593 57.5941C214.874 57.7418 215.176 57.8157 215.501 57.8157C216.003 57.8157 216.491 57.631 216.963 57.2618C217.436 56.8778 217.879 56.3609 218.293 55.711C218.721 55.0612 219.112 54.3006 219.467 53.4292C219.821 52.5578 220.124 51.6273 220.375 50.6378L221.195 44.2797H220.774ZM219.711 59.0563C218.78 60.356 217.731 61.3824 216.565 62.1357C215.413 62.8741 214.143 63.2433 212.754 63.2433C211.927 63.2433 211.13 63.0809 210.362 62.756C209.594 62.4163 208.914 61.9141 208.323 61.2495C207.733 60.5701 207.26 59.7135 206.906 58.6797C206.551 57.631 206.374 56.3978 206.374 54.98C206.374 52.8975 206.75 50.9258 207.504 49.0649C208.272 47.1892 209.335 45.5498 210.694 44.1467C212.067 42.7437 213.692 41.6286 215.568 40.8015C217.443 39.9744 219.504 39.5609 221.749 39.5609C222.842 39.5609 223.949 39.6347 225.072 39.7824C226.194 39.9301 227.302 40.196 228.395 40.58L225.603 62.8889H221.926C221.498 62.8889 221.136 62.8372 220.84 62.7338C220.56 62.6157 220.331 62.4606 220.154 62.2686C219.991 62.0766 219.873 61.8477 219.799 61.5818C219.74 61.316 219.711 61.028 219.711 60.7178V59.0563ZM238.487 43.8809C239.595 42.404 240.806 41.3184 242.12 40.6243C243.435 39.9153 244.793 39.5609 246.196 39.5609C247.142 39.5609 248.006 39.7529 248.788 40.1369C249.586 40.5209 250.243 41.0821 250.76 41.8206C251.292 42.559 251.668 43.4747 251.89 44.5677C252.112 45.6458 252.134 46.8864 251.956 48.2895L250.228 62.8889H243.361L245.089 48.2895C245.163 47.6692 245.185 47.1449 245.155 46.7166C245.14 46.2883 245.067 45.9486 244.934 45.6975C244.801 45.4464 244.616 45.2692 244.38 45.1658C244.144 45.0477 243.863 44.9886 243.538 44.9886C243.036 44.9886 242.512 45.1437 241.965 45.4538C241.419 45.764 240.894 46.207 240.392 46.783C239.905 47.3443 239.454 48.031 239.041 48.8433C238.627 49.6409 238.302 50.527 238.066 51.5018L236.803 62.8889H229.936L232.683 39.9153H236.227C236.936 39.9153 237.49 40.0852 237.889 40.4249C238.288 40.7498 238.487 41.2889 238.487 42.0421V43.8809ZM270.134 44.7449C269.927 45.0107 269.735 45.2027 269.558 45.3209C269.381 45.439 269.145 45.4981 268.849 45.4981C268.554 45.4981 268.258 45.4317 267.963 45.2987C267.682 45.1658 267.372 45.0181 267.033 44.8557C266.708 44.6784 266.331 44.5233 265.903 44.3904C265.489 44.2575 265.009 44.191 264.463 44.191C263.444 44.191 262.713 44.3904 262.269 44.7892C261.841 45.1732 261.627 45.6753 261.627 46.2957C261.627 46.6944 261.745 47.0341 261.981 47.3147C262.233 47.5953 262.557 47.8464 262.956 48.068C263.355 48.2895 263.805 48.4963 264.308 48.6883C264.825 48.8655 265.349 49.0723 265.881 49.3086C266.412 49.5301 266.929 49.7886 267.431 50.084C267.948 50.3793 268.406 50.7412 268.805 51.1695C269.204 51.5978 269.521 52.1073 269.757 52.6981C270.009 53.2889 270.134 53.9904 270.134 54.8027C270.134 55.9547 269.905 57.0477 269.447 58.0815C268.989 59.1006 268.332 59.9941 267.476 60.7621C266.619 61.5153 265.578 62.1209 264.352 62.5787C263.141 63.0218 261.775 63.2433 260.253 63.2433C259.53 63.2433 258.813 63.1695 258.105 63.0218C257.396 62.8741 256.724 62.6747 256.089 62.4237C255.468 62.1726 254.9 61.8772 254.383 61.5375C253.866 61.183 253.445 60.8064 253.12 60.4077L254.804 57.8821C255.01 57.5867 255.247 57.3578 255.513 57.1953C255.793 57.0181 256.133 56.9295 256.532 56.9295C256.901 56.9295 257.218 57.0181 257.484 57.1953C257.75 57.3726 258.038 57.5646 258.348 57.7713C258.658 57.9781 259.028 58.1701 259.456 58.3473C259.884 58.5246 260.445 58.6132 261.14 58.6132C262.114 58.6132 262.838 58.399 263.311 57.9707C263.783 57.5277 264.02 57.0107 264.02 56.42C264.02 55.9621 263.894 55.5855 263.643 55.2901C263.407 54.9947 263.089 54.7437 262.69 54.5369C262.292 54.3153 261.841 54.1233 261.339 53.9609C260.837 53.7837 260.32 53.5917 259.788 53.3849C259.257 53.1781 258.74 52.9418 258.237 52.676C257.735 52.3953 257.285 52.0483 256.886 51.6347C256.487 51.2212 256.162 50.7117 255.911 50.1061C255.675 49.5006 255.557 48.7695 255.557 47.9129C255.557 46.8495 255.749 45.8157 256.133 44.8113C256.532 43.807 257.115 42.9209 257.883 42.1529C258.666 41.3701 259.633 40.7424 260.785 40.2698C261.937 39.7972 263.281 39.5609 264.817 39.5609C266.353 39.5609 267.719 39.8267 268.916 40.3584C270.127 40.8901 271.124 41.54 271.906 42.308L270.134 44.7449Z" fill="#00B14F"/>
<path d="M101.6 61.75L106.56 20.67H111.6C112.64 20.67 113.44 20.9233 114 21.43C114.587 21.9367 114.88 22.75 114.88 23.87L114.68 28.39C116.52 25.59 118.52 23.51 120.68 22.15C122.84 20.7633 125.093 20.07 127.44 20.07C129.947 20.07 131.933 20.91 133.4 22.59C134.867 24.27 135.72 26.6967 135.96 29.87C137.88 26.51 140 24.0433 142.32 22.47C144.667 20.87 147.213 20.07 149.96 20.07C151.693 20.07 153.213 20.4167 154.52 21.11C155.827 21.8033 156.893 22.8167 157.72 24.15C158.547 25.4567 159.107 27.0833 159.4 29.03C159.693 30.95 159.68 33.15 159.36 35.63L156.28 61.75H146.52L149.6 35.63C149.947 32.9633 149.867 31.0567 149.36 29.91C148.88 28.7367 147.893 28.15 146.4 28.15C145.387 28.15 144.4 28.4167 143.44 28.95C142.48 29.4833 141.56 30.2567 140.68 31.27C139.827 32.2833 139.027 33.5233 138.28 34.99C137.56 36.4567 136.92 38.11 136.36 39.95L133.8 61.75H124.04L127.16 35.63C127.48 32.9633 127.413 31.0567 126.96 29.91C126.507 28.7367 125.52 28.15 124 28.15C122.933 28.15 121.907 28.43 120.92 28.99C119.96 29.55 119.04 30.3633 118.16 31.43C117.307 32.47 116.507 33.75 115.76 35.27C115.04 36.7633 114.4 38.4433 113.84 40.31L111.28 61.75H101.6Z" fill="#00B14F"/>
</svg>
